<svg xmlns="http://www.w3.org/2000/svg" aria-hidden="true" style="position:absolute;width:0;height:0;overflow:hidden"><defs><symbol id="icon-account" viewBox="0 0 33 32"><path d="M4.667 6.667v18.667a2.666 2.666 0 0 0 2.667 2.667h18.667c1.467 0 2.667-1.2 2.667-2.667V6.667C28.668 5.2 27.468 4 26.001 4H7.334c-1.48 0-2.667 1.2-2.667 2.667zm16 5.333c0 2.213-1.787 4-4 4s-4-1.787-4-4 1.787-4 4-4 4 1.787 4 4zm-12 10.667c0-2.667 5.333-4.133 8-4.133s8 1.467 8 4.133V24h-16v-1.333z" style="fill:var(--color1, #e0e0e0)"/></symbol><symbol id="icon-envelop" viewBox="0 0 33 32"><path fill="#e0e0e0" d="M27.333 5.333H6A2.663 2.663 0 0 0 3.347 8l-.013 16c0 1.467 1.2 2.667 2.667 2.667h21.333c1.467 0 2.667-1.2 2.667-2.667V8c0-1.467-1.2-2.667-2.667-2.667zm0 5.334-10.667 6.667-10.667-6.667V8l10.667 6.667L27.333 8v2.667z" style="fill:var(--color1, #e0e0e0)"/></symbol><symbol id="icon-lock" viewBox="0 0 33 32"><path fill="#e0e0e0" d="M24.667 10.667h-1.333V8c0-3.68-2.987-6.667-6.667-6.667S10 4.32 10 8v2.667H8.667A2.675 2.675 0 0 0 6 13.334v13.333c0 1.467 1.2 2.667 2.667 2.667h16c1.467 0 2.667-1.2 2.667-2.667V13.334c0-1.467-1.2-2.667-2.667-2.667zm-8 12C15.2 22.667 14 21.467 14 20s1.2-2.667 2.667-2.667c1.467 0 2.667 1.2 2.667 2.667s-1.2 2.667-2.667 2.667zm4.133-12h-8.267V8c0-2.28 1.853-4.133 4.133-4.133S20.799 5.72 20.799 8v2.667z" style="fill:var(--color1, #e0e0e0)"/></symbol><symbol id="icon-wallet" viewBox="0 0 32 32"><path fill="#24cca7" d="m3.755 7.619 16.211-4.537-.858-1.779C18.546.146 17.176-.331 16.048.245L1.535 7.62h2.219zM24.813 3.048a2.05 2.05 0 0 0-.586.087L9.215 7.619h18.431l-.693-2.779c-.266-1.083-1.163-1.793-2.14-1.793z" style="fill:var(--color2, #24cca7)"/><path fill="#4a56e2" d="M28.36 8.573H1.801A1.799 1.799 0 0 0 0 10.355v19.862A1.79 1.79 0 0 0 1.797 32h26.559a1.79 1.79 0 0 0 1.797-1.783v-4.973H19.491c-1.685 0-3.055-1.358-3.055-3.03v-3.965c0-.82.331-1.565.866-2.111a3.03 3.03 0 0 1 2.185-.916h10.665v-4.867a1.785 1.785 0 0 0-1.793-1.783z" style="fill:var(--color3, #4a56e2)"/><path fill="#4a56e2" d="M31.414 16.926a1.804 1.804 0 0 0-1.211-.467H19.491a1.79 1.79 0 0 0-1.797 1.783v3.968a1.79 1.79 0 0 0 1.797 1.783h10.712c.205 0 .399-.036.582-.096.237-.078.449-.207.629-.371.359-.324.586-.795.586-1.316v-3.968a1.77 1.77 0 0 0-.586-1.316zm-8.171 3.655a.895.895 0 0 1-.898.891h-.596a.895.895 0 0 1-.898-.891v-.592c0-.285.133-.538.345-.699a.908.908 0 0 1 .553-.192h.596c.496 0 .898.399.898.891v.592z" /></symbol></defs></svg>