<svg aria-hidden="true" style="fill: #e0e0e0; right: 15px;" version="1.1" xmlns="http://www.w3.org/2000/svg" xmlns:xlink="http://www.w3.org/1999/xlink">
<path d="M31.714 15.086c-0.247-0.355-6.151-8.686-15.714-8.686s-15.467 8.332-15.714 8.686c-0.179 0.255-0.286 0.572-0.286 0.914s0.107 0.659 0.29 0.919l-0.003-0.005c0.247 0.355 6.151 8.686 15.714 8.686s15.467-8.332 15.714-8.686c0.179-0.255 0.286-0.572 0.286-0.914s-0.107-0.659-0.29-0.919l0.003 0.005zM16 24c-8.836 0-14.4-8-14.4-8s5.564-8 14.4-8 14.4 8 14.4 8-5.564 8-14.4 8z"></path>
<path d="M16 9.6c-3.534 0-6.4 2.865-6.4 6.4s2.865 6.4 6.4 6.4c3.535 0 6.4-2.865 6.4-6.4s-2.866-6.4-6.4-6.4zM16 20.8c-2.647 0-4.8-2.153-4.8-4.8s2.153-4.8 4.8-4.8 4.8 2.153 4.8 4.8-2.153 4.8-4.8 4.8z"></path>
</svg>
