<svg aria-hidden="true" style="fill: #e0e0e0; right: 15px;" version="1.1" xmlns="http://www.w3.org/2000/svg" xmlns:xlink="http://www.w3.org/1999/xlink">
<path d="M22.391 18.133c0.242-0.627 0.382-1.353 0.382-2.112 0-0.007 0-0.015-0-0.022v0.001c0-3.368-2.73-6.098-6.098-6.098v0c-0.757 0.001-1.481 0.141-2.148 0.396l0.041-0.014 1.431 1.476c0.197-0.033 0.425-0.053 0.657-0.053h0.001c0.003 0 0.006 0 0.009 0 2.378 0 4.309 1.918 4.329 4.291v0.002c-0.001 0.233-0.020 0.461-0.057 0.682l0.003-0.025z"></path>
<path d="M30.48 15.582c-2.996-5.538-8.249-8.889-14.062-8.889-1.667 0.004-3.268 0.28-4.763 0.787l0.105-0.031 1.431 1.44c0.967-0.26 2.078-0.412 3.223-0.418h0.003c5.004 0 9.556 2.791 12.267 7.493-1.027 1.781-2.324 3.285-3.853 4.509l-0.031 0.024 1.262 1.262c1.803-1.462 3.29-3.233 4.398-5.242l0.046-0.091 0.231-0.427z"></path>
<path d="M4.329 5.138l3.964 3.964c-2.505 1.629-4.518 3.814-5.901 6.387l-0.045 0.093-0.231 0.418 0.231 0.427c2.996 5.538 8.249 8.889 14.062 8.889 2.383-0 4.637-0.555 6.639-1.542l-0.088 0.039 4.444 4.444 1.556-1.333-23.111-23.111zM12.996 13.804l5.911 5.911c-0.632 0.397-1.399 0.634-2.221 0.64h-0.002c-0 0-0 0-0 0-2.391 0-4.329-1.938-4.329-4.329 0-0.009 0-0.019 0-0.028v0.001c0.011-0.814 0.248-1.571 0.65-2.213l-0.010 0.018zM11.707 12.516c-0.702 0.979-1.122 2.201-1.122 3.522 0 3.363 2.726 6.089 6.089 6.089 1.32 0 2.543-0.42 3.54-1.134l-0.018 0.012 1.422 1.422c-1.536 0.674-3.327 1.067-5.209 1.067v0c-5.004 0-9.556-2.791-12.267-7.493 1.328-2.322 3.167-4.212 5.373-5.562l0.067-0.038z"></path>
</svg>
